<svg width="21" height="22" xmlns="http://www.w3.org/2000/svg"><g fill="none" fill-rule="evenodd"><path d="M-1.364-1h24v24h-24z"/><g fill="#007FED"><path d="M3.636 2.003h10v4h4v1h2V4.59L15.05.004H3.636c-1.103 0-2 .896-2 2v5h2V2.003zm14 18h-14v-1h-2v1c0 1.103.897 2 2 2h14c1.104 0 2-.897 2-2v-1h-2v1zm-4-3v-8h-2v3h-2v-3h-2v8h2v-3h2v3z"/><path d="M2.636 15.003h1c1.654 0 3-1.346 3-3s-1.346-3-3-3h-3v8h2v-2zm0-4h1a1 1 0 0 1 0 2h-1v-2zm15-2h-3v8h2v-2h1c1.654 0 3-1.346 3-3s-1.346-3-3-3zm0 4h-1v-2h1a1 1 0 0 1 0 2z" fill-rule="nonzero"/></g></g></svg>